Coordinates
version=1
nRows=17
nColumns=24
inDegrees=yes

Units are S.I. units (second, meters, Newtons, ...)
Angles are in degrees.

endheader
time	pelvis_tilt	pelvis_list	pelvis_rotation	pelvis_tx	pelvis_ty	pelvis_tz	hip_flexion_r	hip_adduction_r	hip_rotation_r	knee_angle_r	ankle_angle_r	subtalar_angle_r	mtp_angle_r	hip_flexion_l	hip_adduction_l	hip_rotation_l	knee_angle_l	ankle_angle_l	subtalar_angle_l	mtp_angle_l	lumbar_extension	lumbar_bending	lumbar_rotation
      0.72550000	     -0.08295727	     -5.09311817	      7.88297578	     -0.46064870	      1.03423247	      0.33399712	      8.13247819	      9.56121989	     -4.81774559	    -11.25350436	      2.13911208	    -11.90159273	      2.12345210	     15.67916306	     -6.99414211	     -1.71357280	    -64.99160494	     -4.13018370	     -5.25459251	      5.21152608	     -4.26053607	      3.66390866	     -2.75979737
      0.72966667	     -0.08250258	     -4.93848162	      7.91185205	     -0.45545313	      1.03500089	      0.33411067	      7.66106702	      9.44698318	     -4.87830888	    -11.00378904	      2.33661615	    -11.67530620	      1.92800539	     16.19881976	     -6.79338634	     -1.72206668	    -64.67342978	     -3.36904972	     -5.48665550	      2.20753159	     -4.31037029	      3.44475985	     -2.56964283
      0.73383333	     -0.08809995	     -4.80231545	      7.92098877	     -0.45022739	      1.03573950	      0.33426976	      7.17270542	      9.36626280	     -4.83618127	    -10.69525759	      2.40155347	    -11.63073644	      1.92679644	     16.70301846	     -6.62562286	     -1.76090670	    -64.28239558	     -2.67715593	     -5.69936504	      2.20889475	     -4.34639064	      3.27789146	     -2.59437789
      0.73800000	     -0.08492078	     -4.65621758	      7.93525240	     -0.44501075	      1.03646967	      0.33442557	      6.67307190	      9.27553518	     -4.80622705	    -10.38525827	      2.48962632	    -11.56078764	      1.92459690	     17.18006035	     -6.44316814	     -1.79379830	    -63.82291429	     -2.04594551	     -5.90414395	      2.20429664	     -4.40021099	      3.08500204	     -2.57322233
      0.74216667	     -0.06134338	     -4.50320726	      7.94081477	     -0.43980135	      1.03720155	      0.33458896	      6.15353365	      9.18011206	     -4.78174720	    -10.08172111	      2.58911572	    -11.47315006	      1.92080107	     17.61206963	     -6.25642634	     -1.84093163	    -63.29486369	     -1.45825446	     -6.12981002	      2.19390099	     -4.48145686	      2.88092263	     -2.52644690
      0.74633333	      0.00586674	     -4.33189499	      7.93791899	     -0.43461937	      1.03799479	      0.33474727	      5.58244654	      9.07094543	     -4.73388617	     -9.77517160	      2.71230777	    -11.33810745	      1.90989495	     17.96849557	     -6.04951746	     -1.89055367	    -62.68619186	     -0.94732324	     -6.35614128	      2.15765635	     -4.65577185	      2.66513421	     -2.42552077
      0.75050000	      0.03418012	     -4.17488800	      7.92245409	     -0.42941865	      1.03868149	      0.33492513	      5.06511811	      8.97107118	     -4.71372655	     -9.48753195	      2.81758654	    -11.23768580	      1.89957120	     18.35175376	     -5.85890635	     -1.96296346	    -62.02773811	     -0.44943918	     -6.63573785	      2.13124818	     -4.73929573	      2.44756761	     -2.35884408
      0.75466667	      0.10543789	     -4.00468445	      7.90347967	     -0.42422939	      1.03941382	      0.33508717	      4.48962558	      8.86264421	     -4.66992692	     -9.17955805	      2.96087110	    -11.08211860	      1.87222289	     18.66019863	     -5.65276339	     -2.02866274	    -61.28884403	     -0.05886725	     -6.91968715	      2.06070900	     -4.88849809	      2.24275017	     -2.22537189
      0.75883333	      0.15680743	     -3.82500690	      7.86804379	     -0.41905427	      1.04009241	      0.33526374	      3.94806502	      8.74043299	     -4.62326434	     -8.89927805	      3.09179353	    -10.95872347	      1.84296963	     18.96548258	     -5.43403033	     -2.11178128	    -60.48812527	      0.32927111	     -7.21085056	      1.99618051	     -5.01832337	      2.00927663	     -2.12888985
      0.76300000	      0.18200897	     -3.65818003	      7.82218583	     -0.41390002	      1.04067103	      0.33545345	      3.44927740	      8.62765989	     -4.57465021	     -8.64231045	      3.21087559	    -10.85888530	      1.81551834	     19.28535166	     -5.22494469	     -2.19417326	    -59.63998671	      0.71107492	     -7.49625265	      1.94357092	     -5.12282158	      1.80515380	     -2.04277397
      0.76716667	      0.25700649	     -3.49011875	      7.77748823	     -0.40873491	      1.04130730	      0.33563847	      2.88115139	      8.52158847	     -4.51177723	     -8.35285605	      3.34629999	    -10.72362038	      1.77031756	     19.52682071	     -5.02235516	     -2.27963752	    -58.72211228	      1.02067647	     -7.80198040	      1.86281247	     -5.27811149	      1.58529510	     -1.91627265
      0.77133333	      0.31074120	     -3.31638246	      7.71511280	     -0.40358892	      1.04186310	      0.33583760	      2.35033817	      8.40455353	     -4.43806477	     -8.09320307	      3.48296417	    -10.61559153	      1.72016682	     19.76707492	     -4.81088080	     -2.37706565	    -57.74529857	      1.32444390	     -8.09339358	      1.78177304	     -5.41540891	      1.36214782	     -1.80267005
      0.77550000	      0.35011036	     -3.15355542	      7.64181920	     -0.39845776	      1.04235444	      0.33604516	      1.84376668	      8.29619602	     -4.35563422	     -7.84595109	      3.61725650	    -10.51378156	      1.65936298	     20.00495756	     -4.60805001	     -2.47370285	    -56.71597403	      1.60566042	     -8.38067846	      1.69151298	     -5.53747583	      1.15157839	     -1.67665939
      0.77966667	      0.39370968	     -2.98193950	      7.55752896	     -0.39333181	      1.04281426	      0.33626555	      1.33577834	      8.17802464	     -4.25953138	     -7.60645189	      3.76162227	    -10.42152946	      1.60130427	     20.21247103	     -4.39970282	     -2.58417563	    -55.62378881	      1.86044750	     -8.65390348	      1.60968792	     -5.66444721	      0.92886713	     -1.56020494
      0.78383333	      0.40463893	     -2.81509697	      7.45585604	     -0.38822942	      1.04318608	      0.33649305	      0.88187784	      8.05672929	     -4.15410417	     -7.40223565	      3.89872344	    -10.35068930	      1.55531763	     20.43324772	     -4.19160091	     -2.69775931	    -54.47566075	      2.11418496	     -8.90873678	      1.54809252	     -5.76443880	      0.70990629	     -1.46028453
      0.78800000	      0.47080532	     -2.66911715	      7.36447312	     -0.38311454	      1.04358438	      0.33670024	      0.35197579	      7.96607064	     -4.04363346	     -7.15469366	      4.04452105	    -10.25529796	      1.48712480	     20.57879177	     -4.01132746	     -2.80007850	    -53.27454355	      2.30666691	     -9.18634474	      1.45952621	     -5.90815046	      0.52119552	     -1.30074513
      0.79216667	      0.48677979	     -2.51059389	      7.24296293	     -0.37803132	      1.04388367	      0.33693979	     -0.09588763	      7.85060535	     -3.91813409	     -6.96744004	      4.18398761	    -10.19341470	      1.43682857	     20.74961826	     -3.81583815	     -2.92426374	    -52.01289595	      2.52304899	     -9.41047534	      1.39641556	     -6.01756605	      0.30763695	     -1.19399969
